# xmcd
#
# Track frame offsets:
#	150
#	19699
#	31664
#	48065
#	60722
#	73540
#	82277
#	101748
#	122223
#	152323
#	168475
#
# Disc length: 2496 seconds
#
# Revision: 0
# Processed by: cddbd v1.5PL3 Copyright (c) Steve Scherf et al.
# Submitted via: dBpowerAMP V4.0
#
DISCID=8509be0b
DTITLE=Various Artist - Tower Tracks
DYEAR=1900
DGENRE=Alternative Countr
TTITLE0=Tear Stained Eye
TTITLE1=Richmond Hill
TTITLE2=Deliciously
TTITLE3=Dans La Louisiane
TTITLE4=Blackbirds and Crows
TTITLE5=A Little Something
TTITLE6=Every Street in Nashville
TTITLE7=The Come Heres and the Been Heres
TTITLE8=La Baile De La Deposada
TTITLE9=Las Clases del Cha Cha Cha/ Los Marcianos
TTITLE10=Blind Man
EXTD=
EXTT0=
EXTT1=
EXTT2=
EXTT3=
EXTT4=
EXTT5=
EXTT6=
EXTT7=
EXTT8=
EXTT9=
EXTT10=
PLAYORDER=
